<?xml version="1.0" standalone="no"?><!DOCTYPE svg PUBLIC "-//W3C//DTD SVG 1.1//EN" "http://www.w3.org/Graphics/SVG/1.1/DTD/svg11.dtd"><svg t="1782888815274" class="icon" viewBox="0 0 1024 1024" version="1.1" xmlns="http://www.w3.org/2000/svg" p-id="1397" xmlns:xlink="http://www.w3.org/1999/xlink" width="200" height="200"><path d="M483.7 748.67l-9.5 64.93a20.44 20.44 0 0 1-34.69 11.49L350 735.53a53.32 53.32 0 0 1-15.06-45.43l11.52-78.73zM740.32 492.05l64.93-9.5a20.45 20.45 0 0 0 11.5-34.69l-89.57-89.57a53.34 53.34 0 0 0-45.43-15.06L603 354.75zM769.35 661.41l-115.9 115.9a21.4 21.4 0 0 1-32.55-2.7l-24.6-34.43 135.93-135.92 34.43 24.59a21.41 21.41 0 0 1 2.69 32.56z" fill="#FF7735" p-id="1398"></path><path d="M785.69 569.65l-224 224a46.06 46.06 0 0 1-65.14 0l-239-239a102.1 102.1 0 0 1-29.86-69l-6.4-201.24a63.32 63.32 0 0 1 68.16-65.14l191 14.73a102.16 102.16 0 0 1 64.35 29.61l240.89 240.9a46.06 46.06 0 0 1 0 65.14zM803.23 739.89a47.22 47.22 0 1 0-42.62 79.7l55 15a12.67 12.67 0 0 0 15.56-15.56l-14.93-54.67c-0.06-0.22-0.11-0.43-0.16-0.65a47.07 47.07 0 0 0-12.85-23.82z" fill="#FED54A" p-id="1399"></path><path d="M455.17 458.13m-115.58 0a115.58 115.58 0 1 0 231.16 0 115.58 115.58 0 1 0-231.16 0Z" fill="#FFFFFF" p-id="1400"></path></svg>